PathFileType	4	(X/Y/Z)	Patient4_TMGait_0pt5_01_left_01.trc.trc
DataRate	CameraRate	NumFrames	NumMarkers	Units	OrigDataRate	OrigDataStartFrame	OrigNumFrames
74.468085106383	74.468085106383	6	33	mm	74.468085106383	1	       141
Frame#	Time	L.ASIS			Sacral			L.Shoulder			Chest			R.Shoulder			Neck			R.ASIS			R.Thigh.Superior			R.Thigh.Lateral			R.Thigh.Inferior			R.Patella			L.Thigh.Superior			L.Thigh.Lateral			L.Thigh.Inferior			L.Patella			L.Shank.Superior			L.Shank.Lateral			L.Shank.Inferior			R.Shank.Superior			R.Shank.Lateral			R.Shank.Inferior			R.Heel			R.Midfoot.Superior			R.Midfoot.Lateral			R.Toe			L.Heel			L.Midfoot.Lateral			L.Midfoot.Superior			L.Toe			L.Elbow			L.Wrist			R.Elbow			R.Wrist			
		X1	Y1	Z1	X2	Y2	Z2	X3	Y3	Z3	X4	Y4	Z4	X5	Y5	Z5	X6	Y6	Z6	X7	Y7	Z7	X8	Y8	Z8	X9	Y9	Z9	X10	Y10	Z10	X11	Y11	Z11	X12	Y12	Z12	X13	Y13	Z13	X14	Y14	Z14	X15	Y15	Z15	X16	Y16	Z16	X17	Y17	Z17	X18	Y18	Z18	X19	Y19	Z19	X20	Y20	Z20	X21	Y21	Z21	X22	Y22	Z22	X23	Y23	Z23	X24	Y24	Z24	X25	Y25	Z25	X26	Y26	Z26	X27	Y27	Z27	X28	Y28	Z28	X29	Y29	Z29	X30	Y30	Z30	X31	Y31	Z31	X32	Y32	Z32	X33	Y33	Z33	

1	1.170000000000	743.522413977126	964.176230770650	354.266650176827	532.698017048678	999.530870858907	517.561805145660	685.762652995623	1438.571401459519	342.420906720134	795.661645189700	1368.349567906802	499.028941619174	713.623831303199	1433.419178561245	677.966349415303	687.951506872746	1495.633811007903	495.892804276040	767.032342109974	942.060982212504	626.915300003531	813.729986029666	742.615221944517	595.303023086856	736.034985279179	632.291520494526	652.720310536108	812.241267797569	582.048506661485	570.252235824032	813.262143895300	492.232535885156	573.221612576195	825.036170291700	773.708588673701	380.830210495112	777.053546964916	648.322603958678	307.232776065092	879.742546987719	584.065767176601	367.354722258372	890.288430346250	492.365079735973	360.683978067716	821.195163395140	426.640190541497	354.763882280737	677.693156903513	389.422172394077	306.740902060647	660.106535802444	261.297065682824	363.103134915211	784.466963275590	403.643521750788	581.378543715265	713.810087657689	299.677895207319	641.525651682535	754.135928036534	205.565572981992	578.189397660682	618.058889700284	42.432884736797	545.019427925005	787.940845524398	97.633619422036	585.371441131974	699.049438076681	36.273082619911	622.421242234822	907.058361180807	45.974537012279	617.549573297080	465.651171190274	207.885691282556	401.011261264202	521.436634531983	157.674451673410	321.791712315936	626.960757841797	158.590370599126	343.395130748423	697.231173633475	40.865636262379	318.048748849862	643.860139168989	1086.924244685137	218.672956305638	773.756640860182	858.733817417659	205.588962749657	726.216882095632	1089.925164380067	804.815199357951	907.361944514370	903.544163129572	787.951691087758	
2	1.183428571429	742.055023293193	964.815556996892	354.565340853910	532.164604658288	1000.213624182028	518.930383554167	684.999997097957	1438.842879108225	342.922969037687	795.813120521123	1368.539610901752	498.847686625853	715.200244058577	1434.002842203489	678.266629320298	688.249825535108	1495.999295952060	496.283748801335	766.986491229367	942.172374101315	627.101093687322	812.209033958693	742.310704311019	594.929998264436	734.183856261159	632.329877267207	652.935536023737	809.647821734567	581.699409547029	570.090915716056	810.194528691312	491.963968877375	573.130181360815	825.159793659083	776.102898021368	381.419051928599	778.440074734916	650.220583314454	307.812995014722	881.606505660304	586.952530114956	367.888799898613	893.295601295482	495.653242685490	361.294983637125	825.923375240412	428.718476625564	355.011417578320	683.551555459569	387.551754598421	306.762484081971	669.861815737093	258.680565101612	362.575298785962	781.269938500312	403.479877271183	581.394244867540	710.420755240351	299.666047965536	641.597652043718	750.530234019376	205.514148824563	578.176430191653	614.116005250807	42.418284894458	545.034560116006	784.079849661606	97.628077529552	585.372728436050	695.164111242847	36.278566484516	622.436055829808	903.167337898109	46.001248801003	617.590654357259	477.210920637137	199.018896903874	400.247758199174	534.423553180073	151.065352159901	320.755433731488	639.829761401737	155.273631350023	342.375828179449	713.804069782905	40.118598738179	316.313481235256	640.431852890122	1087.045446522827	220.748329177221	762.723423670835	855.332530939741	207.164005023495	730.315552419966	1091.183233757557	806.012404982513	916.026653697396	910.081806100623	787.195628095834	
3	1.196857142857	740.304122275252	965.577029884476	354.878543710155	531.542393454205	1001.055645895232	520.566453214235	684.093816313517	1439.187629959094	343.536774356884	796.020279045847	1368.761171134624	498.610233163524	717.148318307554	1434.680730153572	678.624658031047	688.629887212889	1496.439288494912	496.765199135507	766.897302294060	942.273819172550	627.271955610411	810.304637453915	741.921744879047	594.491088424862	731.901562018524	632.377058855885	653.212470766193	806.447773380119	581.269525072677	569.913845959235	806.411073464591	491.636240906503	573.048657362990	825.196666738822	778.832280379293	382.064660688331	779.780519874275	652.356040425428	308.491301089904	883.391746507200	590.151771247825	368.581502584086	896.441950791904	499.487439985075	362.055502713755	831.380617866876	431.155161709596	355.307933833499	690.818210040948	384.819182094144	306.744276442397	682.318310170644	255.258844744343	361.929188091301	777.322371479702	403.276448490142	581.429759317063	706.238794991272	299.646388435173	641.698069155606	746.071634862477	205.439556086686	578.171017385938	609.257748974996	42.398380954611	545.049968725126	779.304271349779	97.618734625957	585.384081532804	690.361448609046	36.282281565434	622.467130892840	898.361503900043	46.027666353460	617.643080333103	492.514826559089	187.518263355749	399.305905214314	551.436824903624	142.600701796551	319.483168109366	656.445949849353	151.123003302009	341.150601599432	735.088900976164	39.586999433768	314.238994793413	636.319261089998	1087.243613674956	223.225680954714	749.225167657997	851.514125398773	209.177914467097	735.326087368044	1092.671604246719	807.354051697671	926.520546745125	918.349431206621	786.048797000979	
4	1.210285714286	738.330678494568	966.406819908098	355.175721798015	530.862479080366	1002.011805449627	522.404245525334	683.076964395147	1439.575406301028	344.235203140983	796.273527323968	1368.980907154313	498.312544896745	719.398673457700	1435.394602497989	679.014107081021	689.077425684607	1496.913668822972	497.314893182813	766.758274606654	942.340509961740	627.402294897210	808.060260336048	741.443239897451	593.998221731582	729.242728727126	632.419058491722	653.536941228398	802.720967710128	580.758527805611	569.727267659096	802.003837750243	491.247613174376	572.981384058875	825.069255156462	781.701335618913	382.719374948037	780.882734629258	654.576381954621	309.214346631280	884.838892134079	593.423513167401	369.414909984504	899.422156808557	503.673842376631	362.937306131665	837.269898205187	433.846237833013	355.638439662943	699.341774137657	381.183723719268	306.658416296954	697.291613031149	251.138956272799	361.197365084362	772.717608944494	403.028665892003	581.481312191668	701.361623783681	299.612313766941	641.819283236559	740.855458978631	205.334019785297	578.168356315615	603.589193802058	42.372978102226	545.061539704181	773.710312205273	97.601932265609	585.398343682217	684.741204876000	36.282903849340	622.509037101522	892.739260559733	46.047469388709	617.699646268328	511.556014293873	173.633802566515	398.213130649228	572.407508872266	132.524752303468	318.035595862528	676.629977639965	146.337693439554	339.794939213100	760.780796718417	39.540226477714	311.977788713908	631.633537387531	1087.519365596921	226.003643805986	733.659351492840	847.504678680843	211.596624831273	741.110503178741	1094.305399953533	808.732011821604	938.491613355150	928.199838515439	784.440978626920	
5	1.223714285714	736.217509576957	967.240433191203	355.426930041291	530.166742785044	1003.024571330573	524.362220690153	681.996042961937	1439.972362561688	344.982141479711	796.561591933935	1369.164969486867	497.955326952947	721.855511368550	1436.081167820648	679.404509491386	689.574980158662	1497.379066016805	497.903862995246	766.572738788665	942.351300314997	627.470938363557	805.551739119989	740.876544671422	593.468951489264	726.292892242553	632.440870114113	653.890868796991	798.590124287352	580.170611784365	569.539756348086	797.112989151234	490.798767064394	572.932560417394	824.694755470279	784.479285862140	383.333988979625	781.552936580037	656.709308080129	309.913786450949	885.688921247576	596.501576967817	370.356660922799	901.919422510687	507.982125870106	363.900454065138	843.245152230108	436.671598881452	355.985216971866	708.896346574223	376.683049254699	306.477801439950	714.424608880952	246.523385348507	360.429140498655	767.598119305430	402.733484416390	581.544219489763	695.936377654588	299.557958407540	641.952824370595	735.027967019859	205.190553316502	578.163847140849	597.266205788465	42.342607216599	545.067903023396	767.445916589700	97.573753230807	585.408230080153	678.455127540008	36.279472330657	622.556461008487	886.451448766346	46.052987394352	617.754551553533	534.098890093015	157.858391830382	397.014627078254	597.022070625771	121.264155436582	316.504780191889	699.963099544177	141.223363222238	338.415065547434	790.256887282000	40.286531643760	309.742882627361	626.516534008663	1087.873760214557	228.953038606833	716.588869599164	843.561248660567	214.356967899137	747.484024072713	1095.983870035422	810.021856879696	951.474495817351	939.385050277073	782.319665457697	
6	1.237142857143	734.058127483250	968.010858461544	355.606907502229	529.502318107213	1004.030943718578	526.353605470116	680.905432676279	1440.345394365270	345.736487090087	796.873149433369	1369.283620369640	497.543379801396	724.409155020111	1436.680790717009	679.764712344812	690.104343671948	1497.794550496713	498.499365992138	766.354149167371	942.291397066457	627.463448101894	802.877532192743	740.228917069326	592.923545330833	723.156456661741	632.428204512753	654.254038547174	794.203171810889	579.513350623521	569.360402700154	791.906272701229	490.292017409658	572.905112689063	823.993752927732	786.929759682617	383.864620173558	781.622961067193	658.586583244707	310.513608750183	885.720830164066	599.131210476628	371.361886291430	903.650532403188	512.178021364083	364.898029314997	848.959510116970	439.513568260766	356.329634356451	719.213377137606	371.434794050637	306.180946841839	733.233785679418	241.691699520189	359.684879336934	762.134065432969	402.389306999814	581.612776417241	690.137398104080	299.479066057651	642.090155485545	728.763258062696	205.003858203062	578.153421033841	590.470174694381	42.308629934496	545.070486909483	760.686623969911	97.530490872403	585.407321231753	671.682279088534	36.271595797867	622.604807338340	879.676883562944	46.035821888417	617.804254630924	559.707259956147	140.877601234938	395.769859338665	624.762271623806	109.381810006231	315.005799973645	725.841001553839	136.159585252885	337.135707954773	822.655028547304	42.137041971489	307.785119698927	621.117057836192	1088.309558587113	231.933968564827	698.663901537703	839.936089622856	217.375105288840	754.243610907124	1097.604031545152	811.096713798003	964.955626520176	951.594422552223	779.653735375619	
